<?xml version="1.0" encoding="UTF-8"?>
<svg id="_图层_1" data-name="图层 1" xmlns="http://www.w3.org/2000/svg" viewBox="0 0 1807.03 606.93">
  <defs>
    <style>
      .cls-1 {
        letter-spacing: 0em;
      }

      .cls-2 {
        fill: #0071bc;
      }

      .cls-3 {
        font-family: Luminari-Regular, Luminari;
        font-size: 216.14px;
      }

      .cls-4 {
        letter-spacing: -.04em;
      }

      .cls-5 {
        letter-spacing: -.03em;
      }
    </style>
  </defs>
  <path class="cls-2" d="M482.07,337.43s14.98,143.22-177.29,172.36c0,0-187.28,2.43-164.81-172.36,22.47-174.78,170.25-179.64,170.25-179.64v87.39l141.89-106.81L310.22,0v48.55S-7.36,63.12.13,339.86c7.49,276.74,324.62,267.03,324.62,267.03l24.97-82.54s137.34-14.57,132.35-186.92Z"/>
  <path class="cls-2" d="M361.08,527.89l-20.52,79.03s42.64-1.6,53.1-21.54c10.46-19.95,0-65.7,0-65.7l-32.59,8.21Z"/>
  <path class="cls-2" d="M413.05,506.5s25.04-9.81,30.27-20.34,28.03,96.27-37.37,99.17l7.1-78.83Z"/>
  <path class="cls-2" d="M478.9,445.91l-19.84,33.21,1.91,71s40.82-30.41,17.93-104.21Z"/>
  <path class="cls-2" d="M209.49,273.79l-25.96,43.8s43.29-24.54,81.25-7.69-75.93,82.64-75.93,82.64l118.02-4.81v-17.65h-51.17s131.23-88.26,0-102.7c0,0-31.36-3.21-46.22,6.42Z"/>
  <path class="cls-2" d="M374.21,330.05l2.21-66.66-12.75,12.27-79.23,79.43h61.9l-5.78,40.92h30.42l2.27-41.92,31.42-.33,13.26-23.1-43.72-.61ZM351.18,329.7h-28.23s23.88-29.43,28.23-27.11c4.35,2.32,0,27.11,0,27.11Z"/>
  <path d="M622.8,360.58c-56.51,0-102.32,46.64-102.32,104.16s45.81,104.16,102.32,104.16,102.32-46.64,102.32-104.16-45.81-104.16-102.32-104.16ZM622.8,527.57c-34.08,0-61.71-28.13-61.71-62.83s27.63-62.83,61.71-62.83,61.71,28.13,61.71,62.83-27.63,62.83-61.71,62.83Z"/>
  <polygon points="737.01 387.78 737.01 558.54 783.12 558.54 783.12 456.16 895.14 565.74 895.14 387.78 856 387.78 856 454.63 737.01 372.25 737.01 387.78"/>
  <polygon points="912.35 386.09 876.98 435.99 935.24 435.99 935.24 567.88 984.33 567.88 984.33 435.99 1030.57 435.99 1068.64 386.09 912.35 386.09"/>
  <path d="M1181.92,472.67s22.22-70.69-64.31-90.54c0,0-90.43-4.78-95.76,90.54-5.34,95.31,92.71,99.03,92.71,99.03,0,0,31.03,2.02,39.04-8l-9.08-24.53s-106.16,1.53-86.1-66.5h123.5ZM1108.51,409.39c31.25,3.24,40.24,36.27,40.24,36.27h-85.4s13.91-39.51,45.16-36.27Z"/>
  <polygon points="1346.35 386.09 1310.98 435.99 1369.23 435.99 1369.23 567.88 1418.32 567.88 1418.32 435.99 1464.56 435.99 1502.64 386.09 1346.35 386.09"/>
  <polygon points="1170.27 395.77 1170.27 566.53 1216.37 566.53 1216.37 464.14 1328.4 573.73 1328.4 391.21 1289.26 390.95 1289.26 462.62 1170.27 380.24 1170.27 395.77"/>
  <path d="M1543.49,364.83c-56.51,0-102.32,46.64-102.32,104.16s45.81,104.16,102.32,104.16,102.32-46.64,102.32-104.16-45.81-104.16-102.32-104.16ZM1543.49,531.82c-34.08,0-61.71-28.13-61.71-62.83s27.63-62.83,61.71-62.83,61.71,28.13,61.71,62.83-27.63,62.83-61.71,62.83Z"/>
  <text class="cls-3" transform="translate(548.44 318.09) scale(.9 1)"><tspan x="0" y="0">P2P </tspan><tspan class="cls-4" x="459.51" y="0">W</tspan><tspan class="cls-1" x="667" y="0">ebC</tspan><tspan class="cls-5" x="1035.3" y="0">h</tspan><tspan x="1163.68" y="0">at</tspan></text>
</svg>